#!OML:ASF F:\VICON\USERDATA\INSTALL\rory3\rory3.ASF
:FULLY-SPECIFIED
:DEGREES
189
root -0.00833738 15.2376 -16.5814 -161.375 -1.23671 175.015
lowerback 5.49001 1.01616 -7.51746
upperback -1.90261 0.652425 -1.266
thorax -5.1574 0.51035 2.83365
lowerneck -10.5952 -2.07827 -1.96964
upperneck 18.7568 -4.292 5.3872
head 7.67932 -1.95481 1.6419
rclavicle 6.83322e-016 3.60297e-015
rhumerus -18.6556 52.5429 -110.571
rradius 53.2574
rwrist -70.0783
rhand -12.4561 7.94493
rfingers 7.12502
rthumb 13.6174 -21.5897
lclavicle 6.83322e-016 3.60297e-015
lhumerus -13.0821 -54.6154 97.5701
lradius 83.7149
lwrist 59.2812
lhand 0.90039 16.2197
lfingers 7.12502
lthumb 26.4525 44.3936
rfemur -80.0784 12.3429 -1.64651
rtibia 46.7546
rfoot 12.0172 -24.6837
rtoes -31.7218
lfemur -39.4004 11.4085 -38.869
ltibia 56.6569
lfoot -41.4845 20.8785
ltoes -9.02942
190
root -0.00406435 15.2406 -16.6524 -161.395 -1.78305 175.535
lowerback 5.84709 1.07896 -6.7934
upperback -1.89609 0.798908 -0.967303
thorax -5.35696 0.580553 2.72132
lowerneck -10.1698 -2.25215 -2.16018
upperneck 17.0123 -4.25438 5.41177
head 7.03761 -1.92665 1.69454
rclavicle 6.65929e-015 -2.93207e-014
rhumerus -18.2598 55.409 -109.446
rradius 55.2405
rwrist -68.6018
rhand -6.95218 8.06732
rfingers 7.12502
rthumb 18.9168 -21.0328
lclavicle 6.65929e-015 -2.93207e-014
lhumerus -13.0606 -57.4798 96.5064
lradius 86.8529
lwrist 60.5384
lhand 0.898683 14.9988
lfingers 7.12502
lthumb 26.4509 43.173
rfemur -79.7427 12.3484 -0.713062
rtibia 46.7471
rfoot 13.4269 -24.2132
rtoes -32.9989
lfemur -39.0353 11.123 -38.0502
ltibia 56.5499
lfoot -41.6476 20.7335
ltoes -8.75237
191
root 0.0176931 15.2514 -16.7638 -160.794 -1.97584 175.29
lowerback 4.64639 1.10657 -7.36823
upperback -1.71222 0.924751 -0.717445
thorax -4.50982 0.636255 3.30882
lowerneck -9.66916 -2.44663 -2.3857
upperneck 15.1285 -4.24114 5.37887
head 6.35033 -1.92123 1.73344
rclavicle -8.34896e-015 -1.37161e-014
rhumerus -16.6943 57.3673 -107.17
rradius 56.977
rwrist -65.8341
rhand -0.595035 7.68707
rfingers 7.12502
rthumb 25.0203 -20.6943
lclavicle -8.34896e-015 -1.37161e-014
lhumerus -12.2756 -60.0592 94.7203
lradius 89.4713
lwrist 60.3643
lhand 2.53666 15.2248
lfingers 7.12502
lthumb 28.0177 43.1532
rfemur -79.98 12.293 -0.710884
rtibia 46.9045
rfoot 15.1175 -23.6027
rtoes -33.5463
lfemur -38.9879 10.9787 -38.1661
ltibia 56.2042
lfoot -41.4812 20.6758
ltoes -9.32028
192
root 0.00750333 15.2937 -16.8596 -160.939 -3.13001 176.297
lowerback 5.62131 1.08324 -5.54102
upperback -2.42493 0.947315 -0.442528
thorax -5.77951 0.651074 2.54931
lowerneck -8.1712 -2.75019 -2.36803
upperneck 13.8639 -4.57381 5.31859
head 5.70499 -2.11991 1.70651
rclavicle 5.96354e-015 1.33186e-014
rhumerus -17.8651 59.4404 -107.388
rradius 58.3255
rwrist -64.5615
rhand 3.71262 8.56907
rfingers 7.12502
rthumb 29.1413 -19.1703
lclavicle 5.96354e-015 1.33186e-014
lhumerus -14.7698 -61.8716 95.3405
lradius 91.6392
lwrist 57.5372
lhand 6.71169 15.6969
lfingers 7.12502
lthumb 32.0012 42.9026
rfemur -79.1256 12.1794 1.05193
rtibia 47.0451
rfoot 17.6794 -22.2505
rtoes -35.0386
lfemur -38.0739 10.4386 -36.6126
ltibia 55.7509
lfoot -41.4163 20.6617
ltoes -9.91215
193
root 0.00543193 15.3089 -16.9425 -160.85 -3.53043 175.913
lowerback 5.62598 1.00563 -5.81348
upperback -2.32046 0.845102 -0.19754
thorax -5.67288 0.613794 2.97031
lowerneck -7.71407 -2.91717 -2.547
upperneck 12.2321 -4.56673 5.08291
head 5.11816 -2.13239 1.67767
rclavicle 8.05078e-015 3.57812e-015
rhumerus -15.9253 62.0947 -104.573
rradius 59.5273
rwrist -63.448
rhand 8.89323 8.61217
rfingers 7.12502
rthumb 34.0759 -18.1547
lclavicle 8.05078e-015 3.57812e-015
lhumerus -13.945 -63.4913 93.1104
lradius 93.9007
lwrist 56.8439
lhand 8.61188 15.6123
lfingers 7.12502
lthumb 33.8086 42.4384
rfemur -78.8811 12.0243 1.08226
rtibia 47.388
rfoot 19.7574 -21.1216
rtoes -35.786
lfemur -37.3024 9.7946 -36.7267
ltibia 54.997
lfoot -41.2323 20.913
ltoes -10.7635
194
root -0.0225158 15.3675 -17.0716 -160.588 -4.51129 176.097
lowerback 4.71341 0.772266 -5.01526
upperback -2.10837 0.685623 0.17805
thorax -4.90287 0.495721 2.93995
lowerneck -7.48081 -3.12628 -3.05475
upperneck 10.6756 -4.60358 4.88922
head 4.60821 -2.17008 1.71071
rclavicle 3.18055e-015 1.98785e-015
rhumerus -13.3335 63.9554 -100.995
rradius 60.6512
rwrist -62.7116
rhand 13.9482 7.60964
rfingers 7.12502
rthumb 38.8607 -17.9502
lclavicle 3.18055e-015 1.98785e-015
lhumerus -13.099 -65.105 90.7709
lradius 96.001
lwrist 56.0518
lhand 8.78361 15.2653
lfingers 7.12502
lthumb 33.9717 42.0553
rfemur -77.7484 9.27653 4.70361
rtibia 47.7278
rfoot 20.2775 -16.9345
rtoes -36.9544
lfemur -36.3159 8.92728 -36.1775
ltibia 54.0161
lfoot -41.1738 20.7567
ltoes -10.8011
195
root -0.0360966 15.4183 -17.1954 -160.244 -5.16893 176.161
lowerback 4.1293 0.732692 -4.49308
upperback -2.02638 0.71381 0.429798
thorax -4.4814 0.488165 2.91098
lowerneck -7.80108 -3.39014 -3.41658
upperneck 9.64716 -4.77929 4.6911
head 4.35831 -2.26154 1.69883
rclavicle -2.98177e-015 4.37326e-015
rhumerus -9.95974 66.2618 -96.4739
rradius 61.6147
rwrist -63.4587
rhand 17.199 6.78822
rfingers 7.12502
rthumb 41.9174 -17.8294
lclavicle -2.98177e-015 4.37326e-015
lhumerus -12.6768 -66.8362 88.6128
lradius 97.8498
lwrist 55.0499
lhand 8.51795 14.3456
lfingers 7.12502
lthumb 33.7193 41.1912
rfemur -77.0113 7.76387 6.78487
rtibia 48.0658
rfoot 20.9759 -14.114
rtoes -37.158
lfemur -35.4976 8.24668 -35.8035
ltibia 52.932
lfoot -41.1257 20.4653
ltoes -10.17
196
root -0.0415314 15.4624 -17.3151 -159.81 -5.74093 176.271
lowerback 3.81374 0.638701 -4.16476
upperback -2.58856 0.611526 0.753563
thorax -4.88059 0.445157 3.0722
lowerneck -6.57794 -3.46985 -3.72652
upperneck 8.36144 -4.7913 4.3511
head 4.16753 -2.32811 1.85318
rclavicle -3.57812e-015 -1.90833e-014
rhumerus -9.44211 68.1159 -94.6385
rradius 62.3342
rwrist -64.3229
rhand 20.529 5.08017
rfingers 7.12502
rthumb 45.0275 -18.4085
lclavicle -3.57812e-015 -1.90833e-014
lhumerus -15.8165 -68.2615 89.4121
lradius 99.3464
lwrist 54.1317
lhand 8.53415 13.3455
lfingers 7.12502
lthumb 33.7347 40.1878
rfemur -76.3693 7.01262 8.11913
rtibia 48.4137
rfoot 21.7614 -11.9663
rtoes -38.304
lfemur -34.8101 7.64862 -35.387
ltibia 51.7103
lfoot -40.9398 20.1023
ltoes -9.70369
197
root -0.0536434 15.5384 -17.4437 -159.553 -6.77549 176.916
lowerback 3.72882 0.637423 -2.73925
upperback -2.98961 0.688291 0.982582
thorax -5.23774 0.442885 2.50206
lowerneck -6.5984 -3.78316 -3.9325
upperneck 7.96953 -5.16016 4.33912
head 4.05696 -2.51197 1.86331
rclavicle 4.37326e-015 -1.11319e-014
rhumerus -7.59988 69.1741 -91.5274
rradius 62.863
rwrist -65.4514
rhand 24.7153 2.31167
rfingers 7.12502
rthumb 48.8996 -19.4702
lclavicle 4.37326e-015 -1.11319e-014
lhumerus -18.4476 -70.0214 89.5636
lradius 100.62
lwrist 53.244
lhand 11.3584 13.7782
lfingers 7.12502
lthumb 36.4136 39.992
rfemur -75.6334 6.87339 8.94854
rtibia 48.5773
rfoot 22.1481 -12.4539
rtoes -37.4166
lfemur -33.957 6.89013 -34.2281
ltibia 50.5352
lfoot -40.7112 19.6858
ltoes -9.34599
198
root -0.0833106 15.6248 -17.595 -159.181 -7.94368 176.792
lowerback 3.26428 0.335796 -2.08025
upperback -3.65356 0.307149 1.25634
thorax -5.6407 0.231216 2.4513
lowerneck -4.02997 -3.50525 -4.60886
upperneck 6.17467 -4.76911 4.56392
head 2.94899 -2.35969 2.1134
rclavicle -1.17283e-014 -2.38542e-015
rhumerus -7.29528 70.847 -89.7251
rradius 63.0885
rwrist -66.6215
rhand 26.8397 0.263187
rfingers 7.12502
rthumb 50.8447 -20.5045
lclavicle -1.17283e-014 -2.38542e-015
lhumerus -24.082 -70.5851 92.542
lradius 101.6
lwrist 52.1083
lhand 12.4643 14.1051
lfingers 7.12502
lthumb 37.4597 40.0493
rfemur -74.7057 5.53144 9.82397
rtibia 48.83
rfoot 22.1788 -11.7083
rtoes -37.0976
lfemur -32.7444 5.71933 -33.8781
ltibia 49.0992
lfoot -40.4053 19.6081
ltoes -9.65577
199
root -0.0639302 15.6802 -17.6947 -158.799 -8.26595 176.987
lowerback 3.27133 0.523516 -1.87022
upperback -3.54817 0.585128 1.57359
thorax -5.55168 0.364698 2.64086
lowerneck -5.85562 -3.87879 -4.86404
upperneck 6.02504 -5.10353 4.18128
head 3.25734 -2.50812 1.99218
rclavicle 3.97569e-016 3.97569e-015
rhumerus 0.194118 72.1307 -80.7285
rradius 63.0987
rwrist -67.7851
rhand 29.4743 -1.80172
rfingers 7.12502
rthumb 53.2337 -21.145
lclavicle 3.97569e-016 3.97569e-015
lhumerus -23.4605 -71.4939 89.8503
lradius 102.228
lwrist 51.351
lhand 13.8322 14.7578
lfingers 7.12502
lthumb 38.7513 40.3486
rfemur -74.2783 6.67729 9.23378
rtibia 48.8409
rfoot 22.6614 -12.8603
rtoes -38.6362
lfemur -32.2028 5.1166 -33.2567
ltibia 47.8037
lfoot -39.7538 19.5183
ltoes -9.53828
200
root -0.0861119 15.7741 -17.8519 -158.27 -9.58531 177.23
lowerback 2.74806 0.288678 -0.860952
upperback -4.37535 0.289151 1.87935
thorax -6.09944 0.167259 2.42294
lowerneck -5.24156 -4.14129 -5.02812
upperneck 6.03841 -5.44287 3.71764
head 3.1492 -2.70535 1.85733
rclavicle -2.64384e-014 -1.19271e-014
rhumerus 1.58652 73.8246 -77.6409
rradius 63.0628
rwrist -68.6644
rhand 28.9708 -1.52923
rfingers 7.12502
rthumb 52.7793 -21.1603
lclavicle -2.64384e-014 -1.19271e-014
lhumerus -30.4623 -72.111 94.0045
lradius 102.658
lwrist 50.6612
lhand 14.7871 15.1118
lfingers 7.12502
lthumb 39.6512 40.4421
rfemur -73.2756 5.40733 10.535
rtibia 48.8942
rfoot 23.2089 -11.7911
rtoes -34.006
lfemur -31.0677 3.72666 -32.3085
ltibia 46.1608
lfoot -38.9568 19.1771
ltoes -10.2336
201
root -0.0938334 15.8681 -18.0045 -157.858 -10.8826 177.499
lowerback 1.46268 0.298431 -0.055752
upperback -3.73578 0.346062 2.40863
thorax -4.69175 0.158977 2.50902
lowerneck -8.27204 -4.81548 -5.88861
upperneck 6.38157 -6.06324 3.47927
head 3.91692 -3.00343 1.84372
rclavicle -9.14409e-015 1.59028e-015
rhumerus 11.7891 73.5287 -65.4883
rradius 62.3934
rwrist -67.5863
rhand 33.3449 -5.31914
rfingers 7.12502
rthumb 56.6864 -22.1634
lclavicle -9.14409e-015 1.59028e-015
lhumerus -27.7208 -72.9329 89.6664
lradius 102.45
lwrist 49.9248
lhand 13.676 14.6265
lfingers 7.12502
lthumb 38.604 40.2588
rfemur -72.1114 4.96707 11.1568
rtibia 48.7912
rfoot 22.9901 -11.4841
rtoes -33.0157
lfemur -29.9861 2.33288 -31.2096
ltibia 44.527
lfoot -37.2486 20.137
ltoes -15.2419
202
root -0.116868 15.985 -18.154 -157.673 -12.4526 177.669
lowerback 0.974256 0.182048 1.07663
upperback -3.81691 0.202693 2.71341
thorax -4.48837 0.038045 2.1968
lowerneck -9.70597 -5.25278 -6.00482
upperneck 7.07703 -6.51126 2.94579
head 3.98423 -3.22955 1.44558
rclavicle 2.10712e-014 -6.99722e-014
rhumerus 16.3841 73.1822 -59.0142
rradius 61.7524
rwrist -65.9349
rhand 34.0835 -6.34207
rfingers 7.12502
rthumb 57.336 -22.6447
lclavicle 2.10712e-014 -6.99722e-014
lhumerus -29.5806 -73.3154 89.2105
lradius 101.874
lwrist 48.1425
lhand 13.6134 13.9312
lfingers 7.12502
lthumb 38.5449 39.58
rfemur -70.9644 5.19426 10.3539
rtibia 48.6339
rfoot 18.7832 -18.5749
rtoes -11.4255
lfemur -28.4427 0.685881 -30.1204
ltibia 42.6015
lfoot -35.1525 21.0923
ltoes -20.4321
203
root -0.127517 16.0829 -18.3186 -157.12 -13.6724 177.168
lowerback 0.307728 0.0864287 1.23203
upperback -4.26053 0.0359517 2.84827
thorax -4.56764 -0.065136 2.26031
lowerneck -10.1845 -5.64649 -6.18468
upperneck 7.17791 -6.93429 2.33903
head 4.0959 -3.47311 1.24388
rclavicle 4.09496e-014 -2.54444e-014
rhumerus 19.2509 72.8194 -54.2305
rradius 60.7097
rwrist -62.4339
rhand 36.287 -7.09298
rfingers 7.12502
rthumb 59.2526 -21.6347
lclavicle 4.09496e-014 -2.54444e-014
lhumerus -33.5216 -73.7695 90.6156
lradius 101.205
lwrist 45.9868
lhand 13.2541 13.6406
lfingers 7.12502
lthumb 38.2058 39.3836
rfemur -69.9662 5.37609 9.05302
rtibia 48.3581
rfoot 12.2535 -23.9943
rtoes 13.2414
lfemur -27.0427 -1.10032 -29.6938
ltibia 40.7185
lfoot -34.069 20.0247
ltoes -19.9289
